<svg width="23" height="23" viewBox="0 0 23 23" fill="none" xmlns="http://www.w3.org/2000/svg">
    <path fill-rule="evenodd" clip-rule="evenodd" d="M22.494 11.247C22.494 17.4582 17.4582 22.494 11.247 22.494C5.03585 22.494 0 17.4582 0 11.247C0 5.03585 5.03585 0 11.247 0C17.4582 0 22.494 5.03585 22.494 11.247ZM11.65 8.3031C10.5563 8.75767 8.36965 9.69961 5.09115 11.128C4.55879 11.3398 4.27949 11.5469 4.25418 11.7494C4.21107 12.0924 4.64033 12.2274 5.2233 12.4101C5.30296 12.4354 5.38544 12.4607 5.46979 12.4889C6.04433 12.6754 6.81662 12.8938 7.21777 12.9022C7.58236 12.9097 7.98912 12.7597 8.43807 12.4523C11.501 10.3838 13.0821 9.33877 13.1815 9.31627C13.2518 9.30034 13.3493 9.27972 13.4149 9.33877C13.4805 9.39688 13.4739 9.50747 13.4674 9.53746C13.4242 9.71835 11.7428 11.2826 10.8712 12.0924C10.5994 12.3445 10.4072 12.5235 10.3679 12.5648C10.2798 12.6557 10.1898 12.7429 10.1036 12.8263C9.56933 13.3399 9.17006 13.726 10.1261 14.3559C10.5853 14.6586 10.9527 14.9088 11.3192 15.1582C11.7194 15.4309 12.1187 15.7027 12.636 16.042C12.7672 16.1282 12.8928 16.2172 13.0156 16.3044C13.4814 16.6371 13.9004 16.9352 14.4177 16.8883C14.7176 16.8602 15.0288 16.5781 15.1863 15.7355C15.5584 13.7429 16.2913 9.4278 16.4609 7.6489C16.4713 7.50121 16.465 7.35282 16.4422 7.20652C16.4286 7.08836 16.371 6.97964 16.281 6.90191C16.147 6.79226 15.9389 6.76882 15.8452 6.7707C15.4225 6.7782 14.7739 7.00407 11.65 8.3031Z" fill="#F9F9F9"/>
</svg>
