<svg width="16" height="12" viewBox="0 0 16 12" fill="none" xmlns="http://www.w3.org/2000/svg">
    <path d="M14.7411 5.05212C15.0863 5.49444 15.0863 6.09157 14.7411 6.53318C13.6539 7.92364 11.0455 10.7866 8.00011 10.7866C4.95475 10.7866 2.34631 7.92364 1.2591 6.53318C1.09116 6.32139 1 6.06084 1 5.79265C1 5.52446 1.09116 5.26391 1.2591 5.05212C2.34631 3.66166 4.95475 0.798706 8.00011 0.798706C11.0455 0.798706 13.6539 3.66166 14.7411 5.05212V5.05212Z" stroke="#F3F3F3" stroke-linecap="round" stroke-linejoin="round"/>
    <path d="M8.00011 7.93299C9.20664 7.93299 10.1847 6.97476 10.1847 5.79273C10.1847 4.61069 9.20664 3.65247 8.00011 3.65247C6.79358 3.65247 5.81549 4.61069 5.81549 5.79273C5.81549 6.97476 6.79358 7.93299 8.00011 7.93299Z" stroke="#F3F3F3" stroke-linecap="round" stroke-linejoin="round"/>
</svg>
