<svg width="22" height="21" viewBox="0 0 22 21" fill="none" xmlns="http://www.w3.org/2000/svg">
    <path d="M10.9912 6.99851C9.06318 6.99851 7.48977 8.57195 7.48977 10.5C7.48977 12.4281 9.06318 14.0015 10.9912 14.0015C12.9192 14.0015 14.4926 12.4281 14.4926 10.5C14.4926 8.57195 12.9192 6.99851 10.9912 6.99851ZM21.4928 10.5C21.4928 9.05002 21.506 7.61317 21.4246 6.16582C21.3431 4.48469 20.9596 2.99268 19.7303 1.76335C18.4984 0.53139 17.009 0.150507 15.3279 0.0690774C13.878 -0.0123526 12.4411 0.000781319 10.9938 0.000781319C9.54387 0.000781319 8.10705 -0.0123526 6.65973 0.0690774C4.97862 0.150507 3.48664 0.534016 2.25733 1.76335C1.0254 2.9953 0.644523 4.48469 0.563095 6.16582C0.481666 7.6158 0.4948 9.05265 0.4948 10.5C0.4948 11.9474 0.481666 13.3868 0.563095 14.8342C0.644523 16.5153 1.02803 18.0073 2.25733 19.2367C3.48927 20.4686 4.97862 20.8495 6.65973 20.9309C8.10968 21.0124 9.5465 20.9992 10.9938 20.9992C12.4438 20.9992 13.8806 21.0124 15.3279 20.9309C17.009 20.8495 18.501 20.466 19.7303 19.2367C20.9622 18.0047 21.3431 16.5153 21.4246 14.8342C21.5086 13.3868 21.4928 11.95 21.4928 10.5ZM10.9912 15.8875C8.00986 15.8875 5.60378 13.4814 5.60378 10.5C5.60378 7.51861 8.00986 5.11248 10.9912 5.11248C13.9725 5.11248 16.3786 7.51861 16.3786 10.5C16.3786 13.4814 13.9725 15.8875 10.9912 15.8875ZM16.5993 6.15006C15.9032 6.15006 15.3411 5.58793 15.3411 4.89184C15.3411 4.19574 15.9032 3.63361 16.5993 3.63361C17.2953 3.63361 17.8575 4.19574 17.8575 4.89184C17.8577 5.05713 17.8253 5.22083 17.7621 5.37358C17.6989 5.52633 17.6063 5.66512 17.4894 5.782C17.3725 5.89888 17.2337 5.99155 17.081 6.05471C16.9282 6.11787 16.7645 6.15027 16.5993 6.15006Z" fill="#F9F9F9"/>
</svg>
